{
  "version": "1.1.6",
  "modules": [
    {
      "id": 1,
      "plugin": "Core",
      "version": "1.1.6",
      "model": "AudioInterface",
      "params": [],
      "leftModuleId": 2,
      "data": {
        "audio": {
          "driver": 6,
          "deviceName": "Speakers (9- USB-BH209A)",
          "offset": 0,
          "maxChannels": 8,
          "sampleRate": 44100,
          "blockSize": 256
        }
      },
      "pos": [
        87,
        0
      ]
    },
    {
      "id": 2,
      "plugin": "Fundamental",
      "version": "1.4.0",
      "model": "VCMixer",
      "params": [
        {
          "id": 0,
          "value": 0.543000042
        },
        {
          "id": 1,
          "value": 0.0
        },
        {
          "id": 2,
          "value": 0.00424264045
        },
        {
          "id": 3,
          "value": 1.0
        },
        {
          "id": 4,
          "value": 1.0
        }
      ],
      "leftModuleId": 7,
      "rightModuleId": 1,
      "pos": [
        77,
        0
      ]
    },
    {
      "id": 3,
      "plugin": "Fundamental",
      "version": "1.4.0",
      "model": "VCO",
      "params": [
        {
          "id": 0,
          "value": 1.0
        },
        {
          "id": 1,
          "value": 1.0
        },
        {
          "id": 2,
          "value": -15.7140017
        },
        {
          "id": 3,
          "value": -0.0360000581
        },
        {
          "id": 4,
          "value": 0.0
        },
        {
          "id": 5,
          "value": 0.477950007
        },
        {
          "id": 6,
          "value": 0.0
        }
      ],
      "leftModuleId": 9,
      "rightModuleId": 6,
      "pos": [
        22,
        0
      ]
    },
    {
      "id": 4,
      "plugin": "Fundamental",
      "version": "1.4.0",
      "model": "VCF",
      "params": [
        {
          "id": 0,
          "value": 0.607500255
        },
        {
          "id": 1,
          "value": 0.5
        },
        {
          "id": 2,
          "value": 0.234000027
        },
        {
          "id": 3,
          "value": 1.0
        },
        {
          "id": 4,
          "value": 0.0
        }
      ],
      "pos": [
        42,
        0
      ]
    },
    {
      "id": 6,
      "plugin": "Fundamental",
      "version": "1.4.0",
      "model": "ADSR",
      "params": [
        {
          "id": 0,
          "value": 0.0930001214
        },
        {
          "id": 1,
          "value": 0.330500484
        },
        {
          "id": 2,
          "value": 0.601499259
        },
        {
          "id": 3,
          "value": 0.380499899
        }
      ],
      "leftModuleId": 3,
      "pos": [
        32,
        0
      ]
    },
    {
      "id": 7,
      "plugin": "Fundamental",
      "version": "1.4.0",
      "model": "Scope",
      "params": [
        {
          "id": 0,
          "value": 0.0
        },
        {
          "id": 1,
          "value": 0.0
        },
        {
          "id": 2,
          "value": 0.0
        },
        {
          "id": 3,
          "value": 0.0
        },
        {
          "id": 4,
          "value": 14.0
        },
        {
          "id": 5,
          "value": 0.0
        },
        {
          "id": 6,
          "value": 0.0
        },
        {
          "id": 7,
          "value": 0.0
        }
      ],
      "rightModuleId": 2,
      "data": {
        "lissajous": 0,
        "external": 0
      },
      "pos": [
        64,
        0
      ]
    },
    {
      "id": 9,
      "plugin": "Fundamental",
      "version": "1.4.0",
      "model": "SEQ3",
      "params": [
        {
          "id": 0,
          "value": 0.6280002
        },
        {
          "id": 1,
          "value": 0.0
        },
        {
          "id": 2,
          "value": 0.0
        },
        {
          "id": 3,
          "value": 8.0
        },
        {
          "id": 4,
          "value": 0.825000644
        },
        {
          "id": 5,
          "value": 0.749999702
        },
        {
          "id": 6,
          "value": 2.62500024
        },
        {
          "id": 7,
          "value": 3.04500031
        },
        {
          "id": 8,
          "value": 3.46499991
        },
        {
          "id": 9,
          "value": 3.77999949
        },
        {
          "id": 10,
          "value": 2.26500201
        },
        {
          "id": 11,
          "value": 6.03000116
        },
        {
          "id": 12,
          "value": 1.96500003
        },
        {
          "id": 13,
          "value": 3.9599998
        },
        {
          "id": 14,
          "value": 1.46999824
        },
        {
          "id": 15,
          "value": 4.81499958
        },
        {
          "id": 16,
          "value": 4.71000051
        },
        {
          "id": 17,
          "value": 2.11499953
        },
        {
          "id": 18,
          "value": 1.00500023
        },
        {
          "id": 19,
          "value": 7.14000034
        },
        {
          "id": 20,
          "value": 0.0
        },
        {
          "id": 21,
          "value": 0.0
        },
        {
          "id": 22,
          "value": 0.0
        },
        {
          "id": 23,
          "value": 0.0
        },
        {
          "id": 24,
          "value": 0.0
        },
        {
          "id": 25,
          "value": 0.0
        },
        {
          "id": 26,
          "value": 0.0
        },
        {
          "id": 27,
          "value": 0.0
        },
        {
          "id": 28,
          "value": 0.0
        },
        {
          "id": 29,
          "value": 0.0
        },
        {
          "id": 30,
          "value": 0.0
        },
        {
          "id": 31,
          "value": 0.0
        },
        {
          "id": 32,
          "value": 0.0
        },
        {
          "id": 33,
          "value": 0.0
        },
        {
          "id": 34,
          "value": 0.0
        },
        {
          "id": 35,
          "value": 0.0
        }
      ],
      "rightModuleId": 3,
      "data": {
        "running": true,
        "gates": [
          1,
          1,
          1,
          1,
          1,
          1,
          1,
          1
        ]
      },
      "pos": [
        0,
        0
      ]
    },
    {
      "id": 59,
      "plugin": "Fundamental",
      "version": "1.4.0",
      "model": "VCO",
      "params": [
        {
          "id": 0,
          "value": 1.0
        },
        {
          "id": 1,
          "value": 1.0
        },
        {
          "id": 2,
          "value": -48.4920006
        },
        {
          "id": 3,
          "value": -0.0360000581
        },
        {
          "id": 4,
          "value": 0.889000058
        },
        {
          "id": 5,
          "value": 0.954719901
        },
        {
          "id": 6,
          "value": 0.0
        }
      ],
      "leftModuleId": 63,
      "rightModuleId": 60,
      "pos": [
        22,
        1
      ]
    },
    {
      "id": 60,
      "plugin": "Fundamental",
      "version": "1.4.0",
      "model": "ADSR",
      "params": [
        {
          "id": 0,
          "value": 0.0780000016
        },
        {
          "id": 1,
          "value": 0.653000474
        },
        {
          "id": 2,
          "value": 0.626998961
        },
        {
          "id": 3,
          "value": 0.356499821
        }
      ],
      "leftModuleId": 59,
      "pos": [
        32,
        1
      ]
    },
    {
      "id": 61,
      "plugin": "Fundamental",
      "version": "1.4.0",
      "model": "VCF",
      "params": [
        {
          "id": 0,
          "value": 0.565499842
        },
        {
          "id": 1,
          "value": 0.300499916
        },
        {
          "id": 2,
          "value": 0.351000041
        },
        {
          "id": 3,
          "value": 0.472000152
        },
        {
          "id": 4,
          "value": 0.559000015
        }
      ],
      "pos": [
        42,
        1
      ]
    },
    {
      "id": 63,
      "plugin": "BaconMusic",
      "version": "1.0.2",
      "model": "ChipNoise",
      "params": [
        {
          "id": 0,
          "value": 11.4674911
        },
        {
          "id": 1,
          "value": 0.0
        },
        {
          "id": 2,
          "value": 1.0
        },
        {
          "id": 3,
          "value": 244.974457
        }
      ],
      "rightModuleId": 59,
      "pos": [
        16,
        1
      ]
    },
    {
      "id": 64,
      "plugin": "FrozenWasteland",
      "version": "1.9.8",
      "model": "LissajousLFO",
      "params": [
        {
          "id": 0,
          "value": 2.5
        },
        {
          "id": 1,
          "value": 2.5
        },
        {
          "id": 2,
          "value": 0.0
        },
        {
          "id": 3,
          "value": 2.0
        },
        {
          "id": 4,
          "value": 0.0
        },
        {
          "id": 5,
          "value": 1.0
        },
        {
          "id": 6,
          "value": 1.0
        },
        {
          "id": 7,
          "value": 0.5
        },
        {
          "id": 8,
          "value": 0.5
        },
        {
          "id": 9,
          "value": 0.0
        },
        {
          "id": 10,
          "value": 1.0
        },
        {
          "id": 11,
          "value": 0.0
        },
        {
          "id": 12,
          "value": 1.0
        },
        {
          "id": 13,
          "value": 1.0
        },
        {
          "id": 14,
          "value": 0.5
        },
        {
          "id": 15,
          "value": 0.5
        },
        {
          "id": 16,
          "value": 0.0
        },
        {
          "id": 17,
          "value": 0.0
        },
        {
          "id": 18,
          "value": 0.0
        },
        {
          "id": 19,
          "value": 0.0
        },
        {
          "id": 20,
          "value": 0.0
        },
        {
          "id": 21,
          "value": 0.0
        },
        {
          "id": 22,
          "value": 0.0
        },
        {
          "id": 23,
          "value": 0.0
        },
        {
          "id": 24,
          "value": 0.0
        },
        {
          "id": 25,
          "value": 0.0
        },
        {
          "id": 26,
          "value": 0.0
        },
        {
          "id": 27,
          "value": 0.0
        },
        {
          "id": 28,
          "value": 0.0
        },
        {
          "id": 29,
          "value": 0.0
        },
        {
          "id": 30,
          "value": 0.0
        },
        {
          "id": 31,
          "value": 0.0
        }
      ],
      "pos": [
        124,
        1
      ]
    },
    {
      "id": 65,
      "plugin": "Autinn",
      "version": "1.0.0",
      "model": "Bass",
      "params": [
        {
          "id": 0,
          "value": 0.743499994
        },
        {
          "id": 1,
          "value": 0.25
        },
        {
          "id": 2,
          "value": 0.362500012
        },
        {
          "id": 3,
          "value": 0.75
        },
        {
          "id": 4,
          "value": 1.35649979
        },
        {
          "id": 5,
          "value": 0.0
        },
        {
          "id": 6,
          "value": 0.0
        },
        {
          "id": 7,
          "value": 0.0
        },
        {
          "id": 8,
          "value": 0.0
        },
        {
          "id": 9,
          "value": 0.0
        }
      ],
      "data": {
        "gateInput": true,
        "Gcomp": 1.0
      },
      "pos": [
        94,
        1
      ]
    },
    {
      "id": 66,
      "plugin": "Hora-ProcessorsFree",
      "version": "1.0.3",
      "model": "EnvelopeFollower",
      "params": [
        {
          "id": 0,
          "value": 8.0
        },
        {
          "id": 1,
          "value": 0.5
        },
        {
          "id": 2,
          "value": 0.5
        },
        {
          "id": 3,
          "value": 0.0
        },
        {
          "id": 4,
          "value": 1.0
        }
      ],
      "pos": [
        84,
        1
      ]
    },
    {
      "id": 67,
      "plugin": "NYSTHI",
      "version": "1.0.8",
      "model": "b208_envelope",
      "params": [
        {
          "id": 0,
          "value": 4.0
        },
        {
          "id": 1,
          "value": 10.0
        },
        {
          "id": 2,
          "value": 6.0
        },
        {
          "id": 3,
          "value": 0.0
        },
        {
          "id": 4,
          "value": 0.0
        },
        {
          "id": 5,
          "value": 0.0
        },
        {
          "id": 6,
          "value": 4.0
        },
        {
          "id": 7,
          "value": 10.0
        },
        {
          "id": 8,
          "value": 6.0
        },
        {
          "id": 9,
          "value": 0.0
        },
        {
          "id": 10,
          "value": 0.0
        },
        {
          "id": 11,
          "value": 0.0
        }
      ],
      "data": {
        "m_env_reset_to_zero": false,
        "m_sustained_mode": false,
        "m_sustained_mode2": false
      },
      "pos": [
        114,
        1
      ]
    }
  ],
  "cables": [
    {
      "id": 2,
      "outputModuleId": 2,
      "outputId": 0,
      "inputModuleId": 1,
      "inputId": 0,
      "color": "#0986ad"
    },
    {
      "id": 3,
      "outputModuleId": 2,
      "outputId": 0,
      "inputModuleId": 1,
      "inputId": 1,
      "color": "#c9b70e"
    },
    {
      "id": 6,
      "outputModuleId": 6,
      "outputId": 0,
      "inputModuleId": 2,
      "inputId": 5,
      "color": "#0c8e15"
    },
    {
      "id": 8,
      "outputModuleId": 2,
      "outputId": 1,
      "inputModuleId": 7,
      "inputId": 0,
      "color": "#c9b70e"
    },
    {
      "id": 10,
      "outputModuleId": 9,
      "outputId": 0,
      "inputModuleId": 6,
      "inputId": 4,
      "color": "#c91847"
    },
    {
      "id": 11,
      "outputModuleId": 9,
      "outputId": 1,
      "inputModuleId": 3,
      "inputId": 0,
      "color": "#0986ad"
    },
    {
      "id": 7,
      "outputModuleId": 4,
      "outputId": 0,
      "inputModuleId": 2,
      "inputId": 1,
      "color": "#0986ad"
    },
    {
      "id": 1,
      "outputModuleId": 3,
      "outputId": 2,
      "inputModuleId": 4,
      "inputId": 3,
      "color": "#0c8e15"
    },
    {
      "id": 15,
      "outputModuleId": 3,
      "outputId": 0,
      "inputModuleId": 6,
      "inputId": 3,
      "color": "#0c8e15"
    },
    {
      "id": 17,
      "outputModuleId": 9,
      "outputId": 10,
      "inputModuleId": 6,
      "inputId": 5,
      "color": "#c91847"
    },
    {
      "id": 21,
      "outputModuleId": 61,
      "outputId": 0,
      "inputModuleId": 2,
      "inputId": 2,
      "color": "#c9b70e"
    },
    {
      "id": 22,
      "outputModuleId": 60,
      "outputId": 0,
      "inputModuleId": 2,
      "inputId": 6,
      "color": "#0c8e15"
    },
    {
      "id": 24,
      "outputModuleId": 9,
      "outputId": 9,
      "inputModuleId": 60,
      "inputId": 5,
      "color": "#0986ad"
    },
    {
      "id": 26,
      "outputModuleId": 9,
      "outputId": 2,
      "inputModuleId": 59,
      "inputId": 0,
      "color": "#c91847"
    },
    {
      "id": 27,
      "outputModuleId": 9,
      "outputId": 0,
      "inputModuleId": 60,
      "inputId": 4,
      "color": "#0986ad"
    },
    {
      "id": 23,
      "outputModuleId": 59,
      "outputId": 2,
      "inputModuleId": 61,
      "inputId": 3,
      "color": "#c91847"
    },
    {
      "id": 36,
      "outputModuleId": 63,
      "outputId": 0,
      "inputModuleId": 61,
      "inputId": 0,
      "color": "#0c8e15"
    },
    {
      "id": 37,
      "outputModuleId": 63,
      "outputId": 0,
      "inputModuleId": 4,
      "inputId": 0,
      "color": "#0986ad"
    },
    {
      "id": 38,
      "outputModuleId": 64,
      "outputId": 0,
      "inputModuleId": 65,
      "inputId": 0,
      "color": "#0c8e15"
    },
    {
      "id": 41,
      "outputModuleId": 66,
      "outputId": 0,
      "inputModuleId": 2,
      "inputId": 3,
      "color": "#0c8e15"
    },
    {
      "id": 44,
      "outputModuleId": 64,
      "outputId": 0,
      "inputModuleId": 67,
      "inputId": 0,
      "color": "#c91847"
    },
    {
      "id": 43,
      "outputModuleId": 67,
      "outputId": 2,
      "inputModuleId": 2,
      "inputId": 7,
      "color": "#c9b70e"
    }
  ]
}