{
  "version": "1.1.6",
  "modules": [
    {
      "id": 1,
      "plugin": "Core",
      "version": "1.1.6",
      "model": "AudioInterface",
      "params": [],
      "data": {
        "audio": {
          "driver": 6,
          "deviceName": "VX2776 Series (NVIDIA High Definition Audio)",
          "offset": 0,
          "maxChannels": 8,
          "sampleRate": 44100,
          "blockSize": 256
        }
      },
      "pos": [
        106,
        0
      ]
    },
    {
      "id": 2,
      "plugin": "Fundamental",
      "version": "1.4.0",
      "model": "VCMixer",
      "params": [
        {
          "id": 0,
          "value": 0.0940000936
        },
        {
          "id": 1,
          "value": 1.18667638
        },
        {
          "id": 2,
          "value": 1.0
        },
        {
          "id": 3,
          "value": 1.0
        },
        {
          "id": 4,
          "value": 1.0
        }
      ],
      "pos": [
        84,
        0
      ]
    },
    {
      "id": 3,
      "plugin": "Fundamental",
      "version": "1.4.0",
      "model": "VCO",
      "params": [
        {
          "id": 0,
          "value": 1.0
        },
        {
          "id": 1,
          "value": 1.0
        },
        {
          "id": 2,
          "value": -18.7919979
        },
        {
          "id": 3,
          "value": 0.0
        },
        {
          "id": 4,
          "value": 0.0075000003
        },
        {
          "id": 5,
          "value": 0.5
        },
        {
          "id": 6,
          "value": 0.0
        }
      ],
      "leftModuleId": 38,
      "rightModuleId": 41,
      "pos": [
        43,
        0
      ]
    },
    {
      "id": 7,
      "plugin": "Fundamental",
      "version": "1.4.0",
      "model": "Scope",
      "params": [
        {
          "id": 0,
          "value": 0.0
        },
        {
          "id": 1,
          "value": 0.0
        },
        {
          "id": 2,
          "value": 0.0
        },
        {
          "id": 3,
          "value": 0.0
        },
        {
          "id": 4,
          "value": 6.53000021
        },
        {
          "id": 5,
          "value": 0.0
        },
        {
          "id": 6,
          "value": 0.0
        },
        {
          "id": 7,
          "value": 0.0
        }
      ],
      "data": {
        "lissajous": 0,
        "external": 0
      },
      "pos": [
        74,
        1
      ]
    },
    {
      "id": 31,
      "plugin": "Fundamental",
      "version": "1.4.0",
      "model": "LFO",
      "params": [
        {
          "id": 0,
          "value": 0.0
        },
        {
          "id": 1,
          "value": 0.0
        },
        {
          "id": 2,
          "value": -4.97599983
        },
        {
          "id": 3,
          "value": 0.0
        },
        {
          "id": 4,
          "value": 0.0
        },
        {
          "id": 5,
          "value": 0.445610046
        },
        {
          "id": 6,
          "value": 0.0
        }
      ],
      "pos": [
        10,
        0
      ]
    },
    {
      "id": 33,
      "plugin": "DrumKit",
      "version": "1.1.3",
      "model": "Gnome",
      "params": [
        {
          "id": 0,
          "value": 74.7099915
        },
        {
          "id": 1,
          "value": 0.349999994
        },
        {
          "id": 2,
          "value": 0.0
        },
        {
          "id": 3,
          "value": 0.0
        }
      ],
      "data": {
        "running": true
      },
      "pos": [
        0,
        0
      ]
    },
    {
      "id": 38,
      "plugin": "Geodesics",
      "version": "1.1.0",
      "model": "Entropia",
      "params": [
        {
          "id": 0,
          "value": 0.0
        },
        {
          "id": 1,
          "value": 0.0
        },
        {
          "id": 2,
          "value": 0.0
        },
        {
          "id": 3,
          "value": 0.0
        },
        {
          "id": 4,
          "value": 0.0
        },
        {
          "id": 5,
          "value": 0.5
        },
        {
          "id": 6,
          "value": 0.0
        },
        {
          "id": 7,
          "value": 0.5
        },
        {
          "id": 8,
          "value": 0.5
        },
        {
          "id": 9,
          "value": 0.307999998
        },
        {
          "id": 10,
          "value": 0.5
        },
        {
          "id": 11,
          "value": 0.5
        },
        {
          "id": 12,
          "value": 0.5
        },
        {
          "id": 13,
          "value": 0.5
        },
        {
          "id": 14,
          "value": 0.5
        },
        {
          "id": 15,
          "value": 0.605000079
        },
        {
          "id": 16,
          "value": 0.52549994
        },
        {
          "id": 17,
          "value": 0.287499994
        },
        {
          "id": 18,
          "value": 0.338499993
        },
        {
          "id": 19,
          "value": 0.720500112
        },
        {
          "id": 20,
          "value": 0.5
        },
        {
          "id": 21,
          "value": 1.0
        },
        {
          "id": 22,
          "value": 0.834999979
        },
        {
          "id": 23,
          "value": 0.446500033
        },
        {
          "id": 24,
          "value": 1.0
        },
        {
          "id": 25,
          "value": 0.527499974
        },
        {
          "id": 26,
          "value": 0.506499946
        },
        {
          "id": 27,
          "value": 0.456999898
        },
        {
          "id": 28,
          "value": 1.0
        },
        {
          "id": 29,
          "value": 0.0
        },
        {
          "id": 30,
          "value": 0.0
        },
        {
          "id": 31,
          "value": 0.0
        },
        {
          "id": 32,
          "value": 0.0
        },
        {
          "id": 33,
          "value": 0.0
        },
        {
          "id": 34,
          "value": 0.0
        },
        {
          "id": 35,
          "value": 0.0
        },
        {
          "id": 36,
          "value": 0.0
        },
        {
          "id": 37,
          "value": 0.0
        },
        {
          "id": 38,
          "value": 0.0
        },
        {
          "id": 39,
          "value": 0.0
        },
        {
          "id": 40,
          "value": 0.0
        },
        {
          "id": 41,
          "value": -1.0
        },
        {
          "id": 42,
          "value": 0.0
        },
        {
          "id": 43,
          "value": 0.0
        },
        {
          "id": 44,
          "value": 0.0
        }
      ],
      "rightModuleId": 3,
      "data": {
        "panelTheme": 1,
        "running": true,
        "resetOnRun": false,
        "length": 8,
        "quantize": 3,
        "audio": 0,
        "ranges0": 0,
        "ranges1": 1,
        "addMode": true,
        "sources0": 0,
        "sources1": 0,
        "stepIndex": 1,
        "pipeBlue": true,
        "randomCVs0": 0.838872969,
        "randomCVs1": 0.0440327525,
        "clkSource": 0
      },
      "pos": [
        22,
        0
      ]
    },
    {
      "id": 40,
      "plugin": "Fundamental",
      "version": "1.4.0",
      "model": "VCA",
      "params": [
        {
          "id": 0,
          "value": 0.0719999969
        },
        {
          "id": 1,
          "value": 0.323499888
        }
      ],
      "pos": [
        74,
        0
      ]
    },
    {
      "id": 41,
      "plugin": "Fundamental",
      "version": "1.4.0",
      "model": "ADSR",
      "params": [
        {
          "id": 0,
          "value": 0.0695000142
        },
        {
          "id": 1,
          "value": 0.253999978
        },
        {
          "id": 2,
          "value": 0.697999954
        },
        {
          "id": 3,
          "value": 0.745999813
        }
      ],
      "leftModuleId": 3,
      "pos": [
        53,
        0
      ]
    },
    {
      "id": 42,
      "plugin": "Geodesics",
      "version": "1.1.0",
      "model": "Branes",
      "params": [
        {
          "id": 0,
          "value": 0.0
        },
        {
          "id": 1,
          "value": 0.0
        },
        {
          "id": 2,
          "value": 0.0
        },
        {
          "id": 3,
          "value": 0.0
        }
      ],
      "data": {
        "panelTheme": 1,
        "vibrations0": 0,
        "vibrations1": 0,
        "noiseRange0": 1.0,
        "noiseRange1": 0.0
      },
      "pos": [
        27,
        1
      ]
    },
    {
      "id": 44,
      "plugin": "AudibleInstruments",
      "version": "1.0.0",
      "model": "Plaits",
      "params": [
        {
          "id": 0,
          "value": 0.0
        },
        {
          "id": 1,
          "value": 0.0
        },
        {
          "id": 2,
          "value": -1.80000031
        },
        {
          "id": 3,
          "value": 0.623000979
        },
        {
          "id": 4,
          "value": 0.785000026
        },
        {
          "id": 5,
          "value": 0.615999699
        },
        {
          "id": 6,
          "value": 0.0
        },
        {
          "id": 7,
          "value": 0.333000004
        },
        {
          "id": 8,
          "value": 0.0
        }
      ],
      "data": {
        "lowCpu": false,
        "model": 6,
        "lpgColor": 0.5,
        "decay": 0.5
      },
      "pos": [
        54,
        1
      ]
    },
    {
      "id": 45,
      "plugin": "DrumKit",
      "version": "1.1.3",
      "model": "BassDrum9",
      "params": [
        {
          "id": 0,
          "value": 7.0
        },
        {
          "id": 1,
          "value": 7.0
        },
        {
          "id": 2,
          "value": 0.0
        },
        {
          "id": 3,
          "value": 0.0
        },
        {
          "id": 4,
          "value": 0.0
        },
        {
          "id": 5,
          "value": 0.0
        },
        {
          "id": 6,
          "value": 0.0
        },
        {
          "id": 7,
          "value": 0.0
        },
        {
          "id": 8,
          "value": 0.0
        },
        {
          "id": 9,
          "value": 0.0
        },
        {
          "id": 10,
          "value": 0.0
        },
        {
          "id": 11,
          "value": 0.0
        },
        {
          "id": 12,
          "value": 0.0
        },
        {
          "id": 13,
          "value": 0.0
        },
        {
          "id": 14,
          "value": 0.0
        },
        {
          "id": 15,
          "value": 0.0
        },
        {
          "id": 16,
          "value": 1.0
        },
        {
          "id": 17,
          "value": 1.0
        },
        {
          "id": 18,
          "value": 0.0
        },
        {
          "id": 19,
          "value": 0.0
        },
        {
          "id": 20,
          "value": 0.0
        },
        {
          "id": 21,
          "value": 0.0
        },
        {
          "id": 22,
          "value": 0.0
        },
        {
          "id": 23,
          "value": 0.0
        },
        {
          "id": 24,
          "value": 0.0
        },
        {
          "id": 25,
          "value": 0.0
        },
        {
          "id": 26,
          "value": 0.0
        },
        {
          "id": 27,
          "value": 0.0
        },
        {
          "id": 28,
          "value": 0.0
        },
        {
          "id": 29,
          "value": 0.0
        },
        {
          "id": 30,
          "value": 0.0
        },
        {
          "id": 31,
          "value": 0.0
        }
      ],
      "pos": [
        7,
        1
      ]
    },
    {
      "id": 46,
      "plugin": "AlrightDevices",
      "version": "1.0.2",
      "model": "Chronoblob2",
      "params": [
        {
          "id": 0,
          "value": 0.5
        },
        {
          "id": 1,
          "value": 0.724999964
        },
        {
          "id": 2,
          "value": 0.5
        },
        {
          "id": 3,
          "value": 0.0
        },
        {
          "id": 4,
          "value": 0.0
        },
        {
          "id": 5,
          "value": 0.0
        },
        {
          "id": 6,
          "value": 0.0
        },
        {
          "id": 7,
          "value": 0.0
        },
        {
          "id": 8,
          "value": 0.0
        },
        {
          "id": 9,
          "value": 0.0
        }
      ],
      "data": {
        "delay_mode": 0,
        "hold_behavior": 0,
        "sync_prescaler": 6
      },
      "pos": [
        94,
        1
      ]
    }
  ],
  "cables": [
    {
      "id": 102,
      "outputModuleId": 33,
      "outputId": 1,
      "inputModuleId": 38,
      "inputId": 0,
      "color": "#0c8e15"
    },
    {
      "id": 105,
      "outputModuleId": 41,
      "outputId": 0,
      "inputModuleId": 2,
      "inputId": 5,
      "color": "#c9b70e"
    },
    {
      "id": 104,
      "outputModuleId": 40,
      "outputId": 1,
      "inputModuleId": 2,
      "inputId": 1,
      "color": "#0986ad"
    },
    {
      "id": 114,
      "outputModuleId": 38,
      "outputId": 0,
      "inputModuleId": 44,
      "inputId": 7,
      "color": "#0c8e15"
    },
    {
      "id": 115,
      "outputModuleId": 44,
      "outputId": 0,
      "inputModuleId": 40,
      "inputId": 5,
      "color": "#c91847"
    },
    {
      "id": 124,
      "outputModuleId": 31,
      "outputId": 0,
      "inputModuleId": 44,
      "inputId": 2,
      "color": "#0c8e15"
    },
    {
      "id": 106,
      "outputModuleId": 33,
      "outputId": 0,
      "inputModuleId": 41,
      "inputId": 4,
      "color": "#0c8e15"
    },
    {
      "id": 48,
      "outputModuleId": 2,
      "outputId": 0,
      "inputModuleId": 46,
      "inputId": 5,
      "color": "#0986ad"
    },
    {
      "id": 49,
      "outputModuleId": 2,
      "outputId": 0,
      "inputModuleId": 46,
      "inputId": 6,
      "color": "#c9b70e"
    },
    {
      "id": 125,
      "outputModuleId": 46,
      "outputId": 0,
      "inputModuleId": 1,
      "inputId": 0,
      "color": "#c91847"
    },
    {
      "id": 126,
      "outputModuleId": 46,
      "outputId": 1,
      "inputModuleId": 1,
      "inputId": 1,
      "color": "#0986ad"
    },
    {
      "id": 127,
      "outputModuleId": 33,
      "outputId": 2,
      "inputModuleId": 46,
      "inputId": 7,
      "color": "#c9b70e"
    }
  ]
}