{
  "version": "1.1.6",
  "modules": [
    {
      "id": 1,
      "plugin": "Core",
      "version": "1.1.6",
      "model": "AudioInterface",
      "params": [],
      "data": {
        "audio": {
          "driver": 6,
          "deviceName": "NS-32D311NA17 (NVIDIA High Definition Audio)",
          "offset": 0,
          "maxChannels": 8,
          "sampleRate": 44100,
          "blockSize": 256
        }
      },
      "pos": [
        103,
        0
      ]
    },
    {
      "id": 2,
      "plugin": "Fundamental",
      "version": "1.4.0",
      "model": "VCMixer",
      "params": [
        {
          "id": 0,
          "value": 1.27600002
        },
        {
          "id": 1,
          "value": 1.0
        },
        {
          "id": 2,
          "value": 1.0
        },
        {
          "id": 3,
          "value": 1.0
        },
        {
          "id": 4,
          "value": 1.0
        }
      ],
      "leftModuleId": 7,
      "rightModuleId": 9,
      "pos": [
        61,
        0
      ]
    },
    {
      "id": 3,
      "plugin": "Fundamental",
      "version": "1.4.0",
      "model": "VCO",
      "params": [
        {
          "id": 0,
          "value": 1.0
        },
        {
          "id": 1,
          "value": 1.0
        },
        {
          "id": 2,
          "value": -6.75000191
        },
        {
          "id": 3,
          "value": 0.0
        },
        {
          "id": 4,
          "value": 0.199500144
        },
        {
          "id": 5,
          "value": 0.5
        },
        {
          "id": 6,
          "value": 0.0
        }
      ],
      "leftModuleId": 10,
      "rightModuleId": 4,
      "pos": [
        22,
        0
      ]
    },
    {
      "id": 4,
      "plugin": "Fundamental",
      "version": "1.4.0",
      "model": "VCF",
      "params": [
        {
          "id": 0,
          "value": 0.462000042
        },
        {
          "id": 1,
          "value": 0.5
        },
        {
          "id": 2,
          "value": 0.234000027
        },
        {
          "id": 3,
          "value": 1.0
        },
        {
          "id": 4,
          "value": 0.0
        }
      ],
      "leftModuleId": 3,
      "rightModuleId": 6,
      "pos": [
        32,
        0
      ]
    },
    {
      "id": 6,
      "plugin": "Fundamental",
      "version": "1.4.0",
      "model": "ADSR",
      "params": [
        {
          "id": 0,
          "value": 0.186000139
        },
        {
          "id": 1,
          "value": 0.743000448
        },
        {
          "id": 2,
          "value": 0.5
        },
        {
          "id": 3,
          "value": 0.599000096
        }
      ],
      "leftModuleId": 4,
      "rightModuleId": 7,
      "pos": [
        40,
        0
      ]
    },
    {
      "id": 7,
      "plugin": "Fundamental",
      "version": "1.4.0",
      "model": "Scope",
      "params": [
        {
          "id": 0,
          "value": 0.0
        },
        {
          "id": 1,
          "value": 0.0
        },
        {
          "id": 2,
          "value": 0.0
        },
        {
          "id": 3,
          "value": 0.0
        },
        {
          "id": 4,
          "value": 14.0
        },
        {
          "id": 5,
          "value": 0.0
        },
        {
          "id": 6,
          "value": 0.0
        },
        {
          "id": 7,
          "value": 0.0
        }
      ],
      "leftModuleId": 6,
      "rightModuleId": 2,
      "data": {
        "lissajous": 0,
        "external": 0
      },
      "pos": [
        48,
        0
      ]
    },
    {
      "id": 9,
      "plugin": "MSM",
      "version": "1.0.0",
      "model": "DualDelay",
      "params": [
        {
          "id": 0,
          "value": 0.0
        },
        {
          "id": 1,
          "value": 0.0
        },
        {
          "id": 2,
          "value": 0.594000041
        },
        {
          "id": 3,
          "value": 0.508000076
        },
        {
          "id": 4,
          "value": 0.569000006
        },
        {
          "id": 5,
          "value": 0.445000023
        },
        {
          "id": 6,
          "value": 1.0
        },
        {
          "id": 7,
          "value": 0.500999928
        },
        {
          "id": 8,
          "value": 1.0
        },
        {
          "id": 9,
          "value": 0.0
        },
        {
          "id": 10,
          "value": 0.5
        },
        {
          "id": 11,
          "value": 0.5
        },
        {
          "id": 12,
          "value": 0.5
        },
        {
          "id": 13,
          "value": 0.5
        },
        {
          "id": 14,
          "value": 0.0
        },
        {
          "id": 15,
          "value": 0.0
        },
        {
          "id": 16,
          "value": 0.0
        },
        {
          "id": 17,
          "value": 0.0
        }
      ],
      "leftModuleId": 2,
      "data": {
        "Theme": 0,
        "DISPLAYA": 0,
        "DISPLAYB": 0
      },
      "pos": [
        71,
        0
      ]
    },
    {
      "id": 10,
      "plugin": "Fundamental",
      "version": "1.4.0",
      "model": "SEQ3",
      "params": [
        {
          "id": 0,
          "value": 2.0
        },
        {
          "id": 1,
          "value": 0.0
        },
        {
          "id": 2,
          "value": 0.0
        },
        {
          "id": 3,
          "value": 8.0
        },
        {
          "id": 4,
          "value": 1.33500004
        },
        {
          "id": 5,
          "value": 0.419999987
        },
        {
          "id": 6,
          "value": 0.0
        },
        {
          "id": 7,
          "value": 0.0
        },
        {
          "id": 8,
          "value": 1.97999966
        },
        {
          "id": 9,
          "value": 0.0
        },
        {
          "id": 10,
          "value": 0.0
        },
        {
          "id": 11,
          "value": 0.0
        },
        {
          "id": 12,
          "value": 0.0
        },
        {
          "id": 13,
          "value": 0.0
        },
        {
          "id": 14,
          "value": 0.0
        },
        {
          "id": 15,
          "value": 0.0
        },
        {
          "id": 16,
          "value": 2.2349999
        },
        {
          "id": 17,
          "value": 3.19499993
        },
        {
          "id": 18,
          "value": 10.0
        },
        {
          "id": 19,
          "value": 10.0
        },
        {
          "id": 20,
          "value": 0.0
        },
        {
          "id": 21,
          "value": 0.0
        },
        {
          "id": 22,
          "value": 6.45000029
        },
        {
          "id": 23,
          "value": 0.0
        },
        {
          "id": 24,
          "value": 0.0
        },
        {
          "id": 25,
          "value": 0.0
        },
        {
          "id": 26,
          "value": 10.0
        },
        {
          "id": 27,
          "value": 0.0
        },
        {
          "id": 28,
          "value": 0.0
        },
        {
          "id": 29,
          "value": 0.0
        },
        {
          "id": 30,
          "value": 0.0
        },
        {
          "id": 31,
          "value": 0.0
        },
        {
          "id": 32,
          "value": 0.0
        },
        {
          "id": 33,
          "value": 0.0
        },
        {
          "id": 34,
          "value": 0.0
        },
        {
          "id": 35,
          "value": 0.0
        }
      ],
      "rightModuleId": 3,
      "data": {
        "running": true,
        "gates": [
          1,
          1,
          1,
          1,
          1,
          1,
          1,
          1
        ]
      },
      "pos": [
        0,
        0
      ]
    },
    {
      "id": 12,
      "plugin": "Fundamental",
      "version": "1.4.0",
      "model": "LFO",
      "params": [
        {
          "id": 0,
          "value": 0.0
        },
        {
          "id": 1,
          "value": 1.0
        },
        {
          "id": 2,
          "value": -3.7249999
        },
        {
          "id": 3,
          "value": 0.0
        },
        {
          "id": 4,
          "value": 0.0
        },
        {
          "id": 5,
          "value": 0.5
        },
        {
          "id": 6,
          "value": 0.0
        }
      ],
      "pos": [
        86,
        1
      ]
    },
    {
      "id": 15,
      "plugin": "Fundamental",
      "version": "1.4.0",
      "model": "ADSR",
      "params": [
        {
          "id": 0,
          "value": 0.298500031
        },
        {
          "id": 1,
          "value": 0.430999935
        },
        {
          "id": 2,
          "value": 0.683000326
        },
        {
          "id": 3,
          "value": 0.751000106
        }
      ],
      "pos": [
        71,
        1
      ]
    }
  ],
  "cables": [
    {
      "id": 392,
      "outputModuleId": 3,
      "outputId": 2,
      "inputModuleId": 4,
      "inputId": 3,
      "color": "#0c8e15"
    },
    {
      "id": 395,
      "outputModuleId": 6,
      "outputId": 0,
      "inputModuleId": 4,
      "inputId": 0,
      "color": "#c91847"
    },
    {
      "id": 397,
      "outputModuleId": 6,
      "outputId": 0,
      "inputModuleId": 2,
      "inputId": 5,
      "color": "#0c8e15"
    },
    {
      "id": 398,
      "outputModuleId": 4,
      "outputId": 0,
      "inputModuleId": 2,
      "inputId": 1,
      "color": "#0986ad"
    },
    {
      "id": 399,
      "outputModuleId": 2,
      "outputId": 1,
      "inputModuleId": 7,
      "inputId": 0,
      "color": "#c9b70e"
    },
    {
      "id": 400,
      "outputModuleId": 10,
      "outputId": 0,
      "inputModuleId": 6,
      "inputId": 4,
      "color": "#0986ad"
    },
    {
      "id": 401,
      "outputModuleId": 10,
      "outputId": 1,
      "inputModuleId": 3,
      "inputId": 0,
      "color": "#c9b70e"
    },
    {
      "id": 393,
      "outputModuleId": 2,
      "outputId": 0,
      "inputModuleId": 9,
      "inputId": 11,
      "color": "#0986ad"
    },
    {
      "id": 394,
      "outputModuleId": 2,
      "outputId": 0,
      "inputModuleId": 9,
      "inputId": 12,
      "color": "#c9b70e"
    },
    {
      "id": 402,
      "outputModuleId": 9,
      "outputId": 0,
      "inputModuleId": 1,
      "inputId": 0,
      "color": "#0c8e15"
    },
    {
      "id": 403,
      "outputModuleId": 9,
      "outputId": 1,
      "inputModuleId": 1,
      "inputId": 1,
      "color": "#c91847"
    },
    {
      "id": 417,
      "outputModuleId": 15,
      "outputId": 0,
      "inputModuleId": 9,
      "inputId": 4,
      "color": "#0c8e15"
    },
    {
      "id": 418,
      "outputModuleId": 10,
      "outputId": 4,
      "inputModuleId": 15,
      "inputId": 4,
      "color": "#c91847"
    },
    {
      "id": 419,
      "outputModuleId": 10,
      "outputId": 5,
      "inputModuleId": 9,
      "inputId": 10,
      "color": "#0986ad"
    },
    {
      "id": 422,
      "outputModuleId": 12,
      "outputId": 0,
      "inputModuleId": 9,
      "inputId": 9,
      "color": "#c91847"
    },
    {
      "id": 423,
      "outputModuleId": 12,
      "outputId": 3,
      "inputModuleId": 3,
      "inputId": 1,
      "color": "#0986ad"
    },
    {
      "id": 424,
      "outputModuleId": 10,
      "outputId": 7,
      "inputModuleId": 9,
      "inputId": 3,
      "color": "#c9b70e"
    }
  ]
}