{
  "version": "1.1.6",
  "modules": [
    {
      "id": 1,
      "plugin": "Core",
      "version": "1.1.6",
      "model": "AudioInterface",
      "params": [],
      "data": {
        "audio": {
          "driver": 6,
          "deviceName": "NS-32D311NA17 (NVIDIA High Definition Audio)",
          "offset": 0,
          "maxChannels": 8,
          "sampleRate": 44100,
          "blockSize": 256
        }
      },
      "pos": [
        91,
        0
      ]
    },
    {
      "id": 3,
      "plugin": "Fundamental",
      "version": "1.4.0",
      "model": "VCO",
      "params": [
        {
          "id": 0,
          "value": 1.0
        },
        {
          "id": 1,
          "value": 1.0
        },
        {
          "id": 2,
          "value": -12.5280237
        },
        {
          "id": 3,
          "value": -0.0890000015
        },
        {
          "id": 4,
          "value": 0.433500051
        },
        {
          "id": 5,
          "value": 0.423069954
        },
        {
          "id": 6,
          "value": 0.600999951
        }
      ],
      "leftModuleId": 71,
      "rightModuleId": 6,
      "pos": [
        42,
        0
      ]
    },
    {
      "id": 6,
      "plugin": "Fundamental",
      "version": "1.4.0",
      "model": "ADSR",
      "params": [
        {
          "id": 0,
          "value": 0.352500021
        },
        {
          "id": 1,
          "value": 0.401000589
        },
        {
          "id": 2,
          "value": 0.448500216
        },
        {
          "id": 3,
          "value": 0.446000397
        }
      ],
      "leftModuleId": 3,
      "pos": [
        52,
        0
      ]
    },
    {
      "id": 59,
      "plugin": "Fundamental",
      "version": "1.4.0",
      "model": "SEQ3",
      "params": [
        {
          "id": 0,
          "value": -1.95200002
        },
        {
          "id": 1,
          "value": 0.0
        },
        {
          "id": 2,
          "value": 0.0
        },
        {
          "id": 3,
          "value": 8.0
        },
        {
          "id": 4,
          "value": 0.419999599
        },
        {
          "id": 5,
          "value": 0.975000143
        },
        {
          "id": 6,
          "value": 1.54500031
        },
        {
          "id": 7,
          "value": 1.24499989
        },
        {
          "id": 8,
          "value": 1.15500021
        },
        {
          "id": 9,
          "value": 0.0
        },
        {
          "id": 10,
          "value": 2.2050004
        },
        {
          "id": 11,
          "value": 0.0
        },
        {
          "id": 12,
          "value": 1.85999978
        },
        {
          "id": 13,
          "value": 0.0
        },
        {
          "id": 14,
          "value": 1.07999992
        },
        {
          "id": 15,
          "value": 3.40499949
        },
        {
          "id": 16,
          "value": 2.38500023
        },
        {
          "id": 17,
          "value": 10.0
        },
        {
          "id": 18,
          "value": 10.0
        },
        {
          "id": 19,
          "value": 7.46999884
        },
        {
          "id": 20,
          "value": 0.0
        },
        {
          "id": 21,
          "value": 3.67500019
        },
        {
          "id": 22,
          "value": 1.36500001
        },
        {
          "id": 23,
          "value": 3.43500018
        },
        {
          "id": 24,
          "value": 0.809999943
        },
        {
          "id": 25,
          "value": 0.0
        },
        {
          "id": 26,
          "value": 3.99000072
        },
        {
          "id": 27,
          "value": 6.57000065
        },
        {
          "id": 28,
          "value": 0.0
        },
        {
          "id": 29,
          "value": 0.0
        },
        {
          "id": 30,
          "value": 0.0
        },
        {
          "id": 31,
          "value": 0.0
        },
        {
          "id": 32,
          "value": 0.0
        },
        {
          "id": 33,
          "value": 0.0
        },
        {
          "id": 34,
          "value": 0.0
        },
        {
          "id": 35,
          "value": 0.0
        }
      ],
      "rightModuleId": 71,
      "data": {
        "running": true,
        "gates": [
          1,
          0,
          1,
          1,
          0,
          1,
          0,
          1
        ]
      },
      "pos": [
        17,
        0
      ]
    },
    {
      "id": 69,
      "plugin": "Fundamental",
      "version": "1.4.0",
      "model": "Scope",
      "params": [
        {
          "id": 0,
          "value": 3.0
        },
        {
          "id": 1,
          "value": 0.0
        },
        {
          "id": 2,
          "value": 0.0
        },
        {
          "id": 3,
          "value": 0.0
        },
        {
          "id": 4,
          "value": 6.0
        },
        {
          "id": 5,
          "value": 0.0
        },
        {
          "id": 6,
          "value": 0.0
        },
        {
          "id": 7,
          "value": 0.0
        }
      ],
      "rightModuleId": 70,
      "data": {
        "lissajous": 0,
        "external": 0
      },
      "pos": [
        61,
        0
      ]
    },
    {
      "id": 70,
      "plugin": "Fundamental",
      "version": "1.4.0",
      "model": "VCMixer",
      "params": [
        {
          "id": 0,
          "value": 0.285000026
        },
        {
          "id": 1,
          "value": 0.0
        },
        {
          "id": 2,
          "value": 1.0
        },
        {
          "id": 3,
          "value": 0.0
        },
        {
          "id": 4,
          "value": 1.0
        }
      ],
      "leftModuleId": 69,
      "rightModuleId": 72,
      "pos": [
        74,
        0
      ]
    },
    {
      "id": 71,
      "plugin": "Fundamental",
      "version": "1.4.0",
      "model": "Quantizer",
      "params": [],
      "leftModuleId": 59,
      "rightModuleId": 3,
      "data": {
        "enabledNotes": [
          true,
          true,
          false,
          true,
          true,
          true,
          false,
          true,
          true,
          false,
          true,
          true
        ]
      },
      "pos": [
        39,
        0
      ]
    },
    {
      "id": 72,
      "plugin": "Alikins",
      "version": "1.0.1",
      "model": "BigMuteButton",
      "params": [
        {
          "id": 0,
          "value": 0.0
        }
      ],
      "leftModuleId": 70,
      "pos": [
        84,
        0
      ]
    },
    {
      "id": 73,
      "plugin": "AlrightDevices",
      "version": "1.0.2",
      "model": "Chronoblob2",
      "params": [
        {
          "id": 0,
          "value": 0.402499944
        },
        {
          "id": 1,
          "value": 0.637500048
        },
        {
          "id": 2,
          "value": 0.535999954
        },
        {
          "id": 3,
          "value": 1.0
        },
        {
          "id": 4,
          "value": -0.0209998898
        },
        {
          "id": 5,
          "value": 0.015000036
        },
        {
          "id": 6,
          "value": 0.404999971
        },
        {
          "id": 7,
          "value": 0.0
        },
        {
          "id": 8,
          "value": 0.0
        },
        {
          "id": 9,
          "value": 0.0
        }
      ],
      "data": {
        "delay_mode": 0,
        "hold_behavior": 0,
        "sync_prescaler": 6
      },
      "pos": [
        73,
        1
      ]
    },
    {
      "id": 74,
      "plugin": "Valley",
      "version": "1.0.1",
      "model": "Plateau",
      "params": [
        {
          "id": 0,
          "value": 1.0
        },
        {
          "id": 1,
          "value": 0.510499835
        },
        {
          "id": 2,
          "value": 0.333750039
        },
        {
          "id": 3,
          "value": 3.56500077
        },
        {
          "id": 4,
          "value": 7.8450017
        },
        {
          "id": 5,
          "value": 0.5
        },
        {
          "id": 6,
          "value": 6.67000008
        },
        {
          "id": 7,
          "value": 0.549950004
        },
        {
          "id": 8,
          "value": 10.0
        },
        {
          "id": 9,
          "value": 10.0
        },
        {
          "id": 10,
          "value": 0.0
        },
        {
          "id": 11,
          "value": 0.5
        },
        {
          "id": 12,
          "value": 0.5
        },
        {
          "id": 13,
          "value": 0.0
        },
        {
          "id": 14,
          "value": 0.0
        },
        {
          "id": 15,
          "value": 0.0
        },
        {
          "id": 16,
          "value": 0.0
        },
        {
          "id": 17,
          "value": -0.522000074
        },
        {
          "id": 18,
          "value": 0.0
        },
        {
          "id": 19,
          "value": 0.0
        },
        {
          "id": 20,
          "value": 0.0
        },
        {
          "id": 21,
          "value": 0.0
        },
        {
          "id": 22,
          "value": 0.0
        },
        {
          "id": 23,
          "value": 0.0
        },
        {
          "id": 24,
          "value": 0.0
        },
        {
          "id": 25,
          "value": 0.0
        },
        {
          "id": 26,
          "value": 0.0
        },
        {
          "id": 27,
          "value": 0.0
        },
        {
          "id": 28,
          "value": 0.0
        },
        {
          "id": 29,
          "value": 0.0
        },
        {
          "id": 30,
          "value": 1.0
        }
      ],
      "data": {
        "frozen": false,
        "freezeToggle": false,
        "panelStyle": 0,
        "tuned": 0,
        "diffuseInput": 1,
        "preDelayCVSens": 0,
        "inputSensitivity": 0,
        "outputSaturation": 0
      },
      "pos": [
        90,
        1
      ]
    },
    {
      "id": 77,
      "plugin": "DrumKit",
      "version": "1.1.3",
      "model": "SnareDrumN",
      "params": [
        {
          "id": 0,
          "value": 7.0
        },
        {
          "id": 1,
          "value": 12.0
        },
        {
          "id": 2,
          "value": 0.0
        },
        {
          "id": 3,
          "value": 0.0
        },
        {
          "id": 4,
          "value": 0.0
        },
        {
          "id": 5,
          "value": 0.0
        },
        {
          "id": 6,
          "value": 0.0
        },
        {
          "id": 7,
          "value": 0.0
        },
        {
          "id": 8,
          "value": 0.0
        },
        {
          "id": 9,
          "value": 0.0
        },
        {
          "id": 10,
          "value": 0.0
        },
        {
          "id": 11,
          "value": 0.0
        },
        {
          "id": 12,
          "value": 0.0
        },
        {
          "id": 13,
          "value": 0.0
        },
        {
          "id": 14,
          "value": 0.0
        },
        {
          "id": 15,
          "value": 0.0
        },
        {
          "id": 16,
          "value": 1.0
        },
        {
          "id": 17,
          "value": 1.11520004
        },
        {
          "id": 18,
          "value": 0.0
        },
        {
          "id": 19,
          "value": 0.0
        },
        {
          "id": 20,
          "value": 0.0
        },
        {
          "id": 21,
          "value": 0.0
        },
        {
          "id": 22,
          "value": 0.0
        },
        {
          "id": 23,
          "value": 0.0
        },
        {
          "id": 24,
          "value": 0.0
        },
        {
          "id": 25,
          "value": 0.0
        },
        {
          "id": 26,
          "value": 0.0
        },
        {
          "id": 27,
          "value": 0.0
        },
        {
          "id": 28,
          "value": 0.0
        },
        {
          "id": 29,
          "value": 0.0
        },
        {
          "id": 30,
          "value": 0.0
        },
        {
          "id": 31,
          "value": 0.0
        }
      ],
      "pos": [
        44,
        1
      ]
    },
    {
      "id": 80,
      "plugin": "Geodesics",
      "version": "1.1.0",
      "model": "Ions",
      "params": [
        {
          "id": 0,
          "value": 0.0
        },
        {
          "id": 1,
          "value": 0.0
        },
        {
          "id": 2,
          "value": 0.53399986
        },
        {
          "id": 3,
          "value": 0.5
        },
        {
          "id": 4,
          "value": 0.456
        },
        {
          "id": 5,
          "value": 0.301999986
        },
        {
          "id": 6,
          "value": 0.5
        },
        {
          "id": 7,
          "value": 0.5
        },
        {
          "id": 8,
          "value": 0.5
        },
        {
          "id": 9,
          "value": 0.5
        },
        {
          "id": 10,
          "value": 0.459999889
        },
        {
          "id": 11,
          "value": 0.652500033
        },
        {
          "id": 12,
          "value": 0.5
        },
        {
          "id": 13,
          "value": 0.5
        },
        {
          "id": 14,
          "value": 0.5
        },
        {
          "id": 15,
          "value": 0.774500012
        },
        {
          "id": 16,
          "value": 0.192500025
        },
        {
          "id": 17,
          "value": 0.0
        },
        {
          "id": 18,
          "value": 0.0
        },
        {
          "id": 19,
          "value": 0.0
        },
        {
          "id": 20,
          "value": 0.0
        },
        {
          "id": 21,
          "value": 0.0
        },
        {
          "id": 22,
          "value": 0.0
        },
        {
          "id": 23,
          "value": 0.0
        },
        {
          "id": 24,
          "value": 0.0
        },
        {
          "id": 25,
          "value": 0.0
        },
        {
          "id": 26,
          "value": 0.0
        },
        {
          "id": 27,
          "value": 0.0
        }
      ],
      "data": {
        "panelTheme": 1,
        "running": true,
        "resetOnRun": false,
        "quantize": 3,
        "uncertainty": false,
        "stepIndexes0": 5,
        "stepIndexes1": 5,
        "states0": 0,
        "states1": 0,
        "ranges0": 1,
        "ranges1": 1,
        "leap": false
      },
      "pos": [
        17,
        1
      ]
    },
    {
      "id": 81,
      "plugin": "DrumKit",
      "version": "1.1.3",
      "model": "Gnome",
      "params": [
        {
          "id": 0,
          "value": 115.0
        },
        {
          "id": 1,
          "value": 0.349999994
        },
        {
          "id": 2,
          "value": 0.0
        },
        {
          "id": 3,
          "value": 0.0
        }
      ],
      "data": {
        "running": true
      },
      "pos": [
        0,
        0
      ]
    },
    {
      "id": 82,
      "plugin": "DrumKit",
      "version": "1.1.3",
      "model": "BassDrum9",
      "params": [
        {
          "id": 0,
          "value": 7.0
        },
        {
          "id": 1,
          "value": 7.0
        },
        {
          "id": 2,
          "value": 0.0
        },
        {
          "id": 3,
          "value": 0.0
        },
        {
          "id": 4,
          "value": 0.0
        },
        {
          "id": 5,
          "value": 0.0
        },
        {
          "id": 6,
          "value": 0.0
        },
        {
          "id": 7,
          "value": 0.0
        },
        {
          "id": 8,
          "value": 0.0
        },
        {
          "id": 9,
          "value": 0.0
        },
        {
          "id": 10,
          "value": 0.0
        },
        {
          "id": 11,
          "value": 0.0
        },
        {
          "id": 12,
          "value": 0.0
        },
        {
          "id": 13,
          "value": 0.0
        },
        {
          "id": 14,
          "value": 0.0
        },
        {
          "id": 15,
          "value": 0.0
        },
        {
          "id": 16,
          "value": 1.0
        },
        {
          "id": 17,
          "value": 1.0
        },
        {
          "id": 18,
          "value": 0.0
        },
        {
          "id": 19,
          "value": 0.0
        },
        {
          "id": 20,
          "value": 0.0
        },
        {
          "id": 21,
          "value": 0.0
        },
        {
          "id": 22,
          "value": 0.0
        },
        {
          "id": 23,
          "value": 0.0
        },
        {
          "id": 24,
          "value": 0.0
        },
        {
          "id": 25,
          "value": 0.0
        },
        {
          "id": 26,
          "value": 0.0
        },
        {
          "id": 27,
          "value": 0.0
        },
        {
          "id": 28,
          "value": 0.0
        },
        {
          "id": 29,
          "value": 0.0
        },
        {
          "id": 30,
          "value": 0.0
        },
        {
          "id": 31,
          "value": 0.0
        }
      ],
      "pos": [
        44,
        2
      ]
    },
    {
      "id": 83,
      "plugin": "Geodesics",
      "version": "1.1.0",
      "model": "Ions",
      "params": [
        {
          "id": 0,
          "value": 0.0
        },
        {
          "id": 1,
          "value": 0.0
        },
        {
          "id": 2,
          "value": 0.0600001737
        },
        {
          "id": 3,
          "value": 0.5
        },
        {
          "id": 4,
          "value": 0.5
        },
        {
          "id": 5,
          "value": 0.301999986
        },
        {
          "id": 6,
          "value": 0.5
        },
        {
          "id": 7,
          "value": 0.5
        },
        {
          "id": 8,
          "value": 0.5
        },
        {
          "id": 9,
          "value": 0.5
        },
        {
          "id": 10,
          "value": 0.459999889
        },
        {
          "id": 11,
          "value": 0.652500033
        },
        {
          "id": 12,
          "value": 0.5
        },
        {
          "id": 13,
          "value": 0.5
        },
        {
          "id": 14,
          "value": 0.5
        },
        {
          "id": 15,
          "value": 0.774500012
        },
        {
          "id": 16,
          "value": 0.192500025
        },
        {
          "id": 17,
          "value": 0.0
        },
        {
          "id": 18,
          "value": 0.0
        },
        {
          "id": 19,
          "value": 0.0
        },
        {
          "id": 20,
          "value": 0.0
        },
        {
          "id": 21,
          "value": 0.0
        },
        {
          "id": 22,
          "value": 0.0
        },
        {
          "id": 23,
          "value": 0.0
        },
        {
          "id": 24,
          "value": 0.0
        },
        {
          "id": 25,
          "value": 0.0
        },
        {
          "id": 26,
          "value": 0.0
        },
        {
          "id": 27,
          "value": 0.0
        }
      ],
      "data": {
        "panelTheme": 1,
        "running": true,
        "resetOnRun": false,
        "quantize": 3,
        "uncertainty": false,
        "stepIndexes0": 0,
        "stepIndexes1": 0,
        "states0": 0,
        "states1": 0,
        "ranges0": 1,
        "ranges1": 1,
        "leap": false
      },
      "pos": [
        15,
        2
      ]
    }
  ],
  "cables": [
    {
      "id": 366,
      "outputModuleId": 59,
      "outputId": 0,
      "inputModuleId": 6,
      "inputId": 4,
      "color": "#0986ad"
    },
    {
      "id": 370,
      "outputModuleId": 72,
      "outputId": 0,
      "inputModuleId": 1,
      "inputId": 0,
      "color": "#0c8e15"
    },
    {
      "id": 371,
      "outputModuleId": 72,
      "outputId": 1,
      "inputModuleId": 1,
      "inputId": 1,
      "color": "#c91847"
    },
    {
      "id": 373,
      "outputModuleId": 6,
      "outputId": 0,
      "inputModuleId": 70,
      "inputId": 5,
      "color": "#c9b70e"
    },
    {
      "id": 345,
      "outputModuleId": 70,
      "outputId": 0,
      "inputModuleId": 73,
      "inputId": 5,
      "color": "#0986ad"
    },
    {
      "id": 346,
      "outputModuleId": 70,
      "outputId": 0,
      "inputModuleId": 73,
      "inputId": 6,
      "color": "#c9b70e"
    },
    {
      "id": 378,
      "outputModuleId": 3,
      "outputId": 1,
      "inputModuleId": 70,
      "inputId": 1,
      "color": "#0c8e15"
    },
    {
      "id": 376,
      "outputModuleId": 73,
      "outputId": 0,
      "inputModuleId": 74,
      "inputId": 0,
      "color": "#0986ad"
    },
    {
      "id": 383,
      "outputModuleId": 73,
      "outputId": 1,
      "inputModuleId": 74,
      "inputId": 1,
      "color": "#c9b70e"
    },
    {
      "id": 384,
      "outputModuleId": 74,
      "outputId": 0,
      "inputModuleId": 72,
      "inputId": 0,
      "color": "#0c8e15"
    },
    {
      "id": 385,
      "outputModuleId": 74,
      "outputId": 1,
      "inputModuleId": 72,
      "inputId": 1,
      "color": "#c91847"
    },
    {
      "id": 388,
      "outputModuleId": 59,
      "outputId": 1,
      "inputModuleId": 71,
      "inputId": 0,
      "color": "#0c8e15"
    },
    {
      "id": 391,
      "outputModuleId": 3,
      "outputId": 3,
      "inputModuleId": 74,
      "inputId": 4,
      "color": "#c9b70e"
    },
    {
      "id": 396,
      "outputModuleId": 81,
      "outputId": 0,
      "inputModuleId": 59,
      "inputId": 1,
      "color": "#c91847"
    },
    {
      "id": 416,
      "outputModuleId": 77,
      "outputId": 0,
      "inputModuleId": 70,
      "inputId": 2,
      "color": "#0986ad"
    },
    {
      "id": 417,
      "outputModuleId": 77,
      "outputId": 1,
      "inputModuleId": 70,
      "inputId": 3,
      "color": "#c9b70e"
    }
  ]
}