{
  "version": "1.1.6",
  "modules": [
    {
      "id": 1,
      "plugin": "Core",
      "version": "1.1.6",
      "model": "AudioInterface",
      "params": [],
      "leftModuleId": 11,
      "rightModuleId": 29,
      "data": {
        "audio": {
          "driver": 6,
          "deviceName": "Speakers (High Definition Audio Device)",
          "offset": 0,
          "maxChannels": 8,
          "sampleRate": 44100,
          "blockSize": 256
        }
      },
      "pos": [
        101,
        1
      ]
    },
    {
      "id": 2,
      "plugin": "Fundamental",
      "version": "1.4.0",
      "model": "VCMixer",
      "params": [
        {
          "id": 0,
          "value": 1.42799997
        },
        {
          "id": 1,
          "value": 0.992778122
        },
        {
          "id": 2,
          "value": 0.972979009
        },
        {
          "id": 3,
          "value": 0.692964554
        },
        {
          "id": 4,
          "value": 1.0
        }
      ],
      "rightModuleId": 11,
      "pos": [
        89,
        1
      ]
    },
    {
      "id": 4,
      "plugin": "Fundamental",
      "version": "1.4.0",
      "model": "VCF",
      "params": [
        {
          "id": 0,
          "value": 0.714999855
        },
        {
          "id": 1,
          "value": 0.536000013
        },
        {
          "id": 2,
          "value": 0.589499831
        },
        {
          "id": 3,
          "value": 0.172000065
        },
        {
          "id": 4,
          "value": 0.110499889
        }
      ],
      "leftModuleId": 37,
      "pos": [
        68,
        1
      ]
    },
    {
      "id": 7,
      "plugin": "Fundamental",
      "version": "1.4.0",
      "model": "Scope",
      "params": [
        {
          "id": 0,
          "value": 1.0
        },
        {
          "id": 1,
          "value": -1.23000073
        },
        {
          "id": 2,
          "value": 0.0
        },
        {
          "id": 3,
          "value": 0.0
        },
        {
          "id": 4,
          "value": 12.829998
        },
        {
          "id": 5,
          "value": 0.0
        },
        {
          "id": 6,
          "value": 0.0
        },
        {
          "id": 7,
          "value": 0.0
        }
      ],
      "data": {
        "lissajous": 0,
        "external": 1
      },
      "pos": [
        69,
        0
      ]
    },
    {
      "id": 9,
      "plugin": "DrumKit",
      "version": "1.1.2",
      "model": "Gnome",
      "params": [
        {
          "id": 0,
          "value": 58.9850578
        },
        {
          "id": 1,
          "value": 0.349999994
        },
        {
          "id": 2,
          "value": 0.0
        },
        {
          "id": 3,
          "value": 0.0
        }
      ],
      "leftModuleId": 32,
      "data": {
        "running": true
      },
      "pos": [
        10,
        1
      ]
    },
    {
      "id": 11,
      "plugin": "Ohmer",
      "version": "1.1.3.1",
      "model": "SplitterModule",
      "params": [],
      "leftModuleId": 2,
      "rightModuleId": 1,
      "data": {
        "Theme": 0
      },
      "pos": [
        99,
        1
      ]
    },
    {
      "id": 28,
      "plugin": "VultModulesFree",
      "version": "1.6.0",
      "model": "Trummor2",
      "params": [
        {
          "id": 0,
          "value": 0.0500000007
        },
        {
          "id": 1,
          "value": 0.5
        },
        {
          "id": 2,
          "value": 0.0
        },
        {
          "id": 3,
          "value": 0.0
        },
        {
          "id": 4,
          "value": 0.0
        },
        {
          "id": 5,
          "value": 0.0
        },
        {
          "id": 6,
          "value": 0.0
        },
        {
          "id": 7,
          "value": 0.200000003
        },
        {
          "id": 8,
          "value": 0.400000006
        },
        {
          "id": 9,
          "value": 0.0
        },
        {
          "id": 10,
          "value": 0.0
        },
        {
          "id": 11,
          "value": 0.699999988
        },
        {
          "id": 12,
          "value": 0.100000001
        },
        {
          "id": 13,
          "value": 0.0
        },
        {
          "id": 14,
          "value": 0.0
        },
        {
          "id": 15,
          "value": 0.949999988
        },
        {
          "id": 16,
          "value": 0.0
        },
        {
          "id": 17,
          "value": 0.0
        },
        {
          "id": 18,
          "value": 0.0
        },
        {
          "id": 19,
          "value": 0.0500000007
        },
        {
          "id": 20,
          "value": 0.0500000007
        },
        {
          "id": 21,
          "value": 0.0
        },
        {
          "id": 22,
          "value": 0.0
        },
        {
          "id": 23,
          "value": 0.100000001
        },
        {
          "id": 24,
          "value": 0.0
        },
        {
          "id": 25,
          "value": 0.0
        },
        {
          "id": 26,
          "value": 0.0
        },
        {
          "id": 27,
          "value": 0.0
        },
        {
          "id": 28,
          "value": 0.0
        },
        {
          "id": 29,
          "value": 0.0
        },
        {
          "id": 30,
          "value": 0.0
        },
        {
          "id": 31,
          "value": 0.0
        },
        {
          "id": 32,
          "value": 0.0
        }
      ],
      "data": {
        "mod_a": 0,
        "mod_b": 0,
        "mod_c": 0,
        "mod_d": 0,
        "mk2": true
      },
      "pos": [
        87,
        0
      ]
    },
    {
      "id": 29,
      "plugin": "Bogaudio",
      "version": "1.1.23",
      "model": "Bogaudio-AnalyzerXL",
      "params": [],
      "leftModuleId": 1,
      "rightModuleId": 30,
      "data": {
        "range": 0.0,
        "range_db": 80.0,
        "smooth": 0.25,
        "quality": "good",
        "window": "kaiser"
      },
      "pos": [
        111,
        1
      ]
    },
    {
      "id": 30,
      "plugin": "Alikins",
      "version": "1.0.1",
      "model": "ColorPanel",
      "params": [
        {
          "id": 0,
          "value": 1.0
        },
        {
          "id": 1,
          "value": 1.0
        },
        {
          "id": 2,
          "value": 1.0
        }
      ],
      "leftModuleId": 29,
      "data": {
        "inputRange": 1,
        "colorMode": 1
      },
      "width": 90.0,
      "pos": [
        153,
        1
      ]
    },
    {
      "id": 31,
      "plugin": "Geodesics",
      "version": "1.0.0",
      "model": "Ions",
      "params": [
        {
          "id": 0,
          "value": 0.0
        },
        {
          "id": 1,
          "value": 0.0
        },
        {
          "id": 2,
          "value": 0.499000162
        },
        {
          "id": 3,
          "value": 0.5
        },
        {
          "id": 4,
          "value": 0.5
        },
        {
          "id": 5,
          "value": 0.5
        },
        {
          "id": 6,
          "value": 0.73999989
        },
        {
          "id": 7,
          "value": 0.5
        },
        {
          "id": 8,
          "value": 0.5
        },
        {
          "id": 9,
          "value": 0.5
        },
        {
          "id": 10,
          "value": 0.359999925
        },
        {
          "id": 11,
          "value": 0.273499966
        },
        {
          "id": 12,
          "value": 0.5
        },
        {
          "id": 13,
          "value": 0.5
        },
        {
          "id": 14,
          "value": 0.5
        },
        {
          "id": 15,
          "value": 0.361500025
        },
        {
          "id": 16,
          "value": 0.274999946
        },
        {
          "id": 17,
          "value": 0.514500022
        },
        {
          "id": 18,
          "value": 0.0
        },
        {
          "id": 19,
          "value": 0.0
        },
        {
          "id": 20,
          "value": 0.0
        },
        {
          "id": 21,
          "value": 0.0
        },
        {
          "id": 22,
          "value": 0.0
        },
        {
          "id": 23,
          "value": 0.0
        },
        {
          "id": 24,
          "value": 0.0
        },
        {
          "id": 25,
          "value": 0.0
        },
        {
          "id": 26,
          "value": 0.0
        },
        {
          "id": 27,
          "value": 0.0
        }
      ],
      "data": {
        "panelTheme": 1,
        "running": true,
        "resetOnRun": false,
        "quantize": 2,
        "uncertainty": false,
        "stepIndexes0": 13,
        "stepIndexes1": 8,
        "states0": 2,
        "states1": 2,
        "ranges0": 1,
        "ranges1": 1,
        "leap": false
      },
      "pos": [
        20,
        1
      ]
    },
    {
      "id": 32,
      "plugin": "RJModules",
      "version": "1.4.0",
      "model": "Button",
      "params": [
        {
          "id": 0,
          "value": 0.0
        }
      ],
      "rightModuleId": 9,
      "pos": [
        0,
        1
      ]
    },
    {
      "id": 35,
      "plugin": "Befaco",
      "version": "1.0.0",
      "model": "EvenVCO",
      "params": [
        {
          "id": 0,
          "value": -1.0
        },
        {
          "id": 1,
          "value": 0.0
        },
        {
          "id": 2,
          "value": 0.0
        }
      ],
      "leftModuleId": 36,
      "rightModuleId": 37,
      "pos": [
        52,
        1
      ]
    },
    {
      "id": 36,
      "plugin": "Befaco",
      "version": "1.0.0",
      "model": "EvenVCO",
      "params": [
        {
          "id": 0,
          "value": -2.0
        },
        {
          "id": 1,
          "value": 0.0
        },
        {
          "id": 2,
          "value": 0.0
        }
      ],
      "rightModuleId": 35,
      "pos": [
        44,
        1
      ]
    },
    {
      "id": 37,
      "plugin": "Fundamental",
      "version": "1.4.0",
      "model": "VCF",
      "params": [
        {
          "id": 0,
          "value": 0.615499854
        },
        {
          "id": 1,
          "value": 0.5
        },
        {
          "id": 2,
          "value": 0.0
        },
        {
          "id": 3,
          "value": -0.303000033
        },
        {
          "id": 4,
          "value": 0.0
        }
      ],
      "leftModuleId": 35,
      "rightModuleId": 4,
      "pos": [
        60,
        1
      ]
    }
  ],
  "cables": [
    {
      "id": 177,
      "outputModuleId": 11,
      "outputId": 0,
      "inputModuleId": 1,
      "inputId": 0,
      "color": "#0986ad"
    },
    {
      "id": 178,
      "outputModuleId": 11,
      "outputId": 1,
      "inputModuleId": 1,
      "inputId": 1,
      "color": "#c9b70e"
    },
    {
      "id": 179,
      "outputModuleId": 11,
      "outputId": 2,
      "inputModuleId": 29,
      "inputId": 0,
      "color": "#c91847"
    },
    {
      "id": 6,
      "outputModuleId": 4,
      "outputId": 0,
      "inputModuleId": 2,
      "inputId": 1,
      "color": "#0c8e15"
    },
    {
      "id": 180,
      "outputModuleId": 2,
      "outputId": 0,
      "inputModuleId": 11,
      "inputId": 0,
      "color": "#0986ad"
    },
    {
      "id": 181,
      "outputModuleId": 11,
      "outputId": 3,
      "inputModuleId": 30,
      "inputId": 0,
      "color": "#c9b70e"
    },
    {
      "id": 182,
      "outputModuleId": 11,
      "outputId": 4,
      "inputModuleId": 30,
      "inputId": 1,
      "color": "#0c8e15"
    },
    {
      "id": 183,
      "outputModuleId": 11,
      "outputId": 5,
      "inputModuleId": 30,
      "inputId": 2,
      "color": "#c91847"
    },
    {
      "id": 186,
      "outputModuleId": 32,
      "outputId": 0,
      "inputModuleId": 9,
      "inputId": 3,
      "color": "#c9b70e"
    },
    {
      "id": 187,
      "outputModuleId": 32,
      "outputId": 1,
      "inputModuleId": 31,
      "inputId": 3,
      "color": "#0c8e15"
    },
    {
      "id": 185,
      "outputModuleId": 9,
      "outputId": 2,
      "inputModuleId": 31,
      "inputId": 0,
      "color": "#c91847"
    },
    {
      "id": 200,
      "outputModuleId": 31,
      "outputId": 1,
      "inputModuleId": 35,
      "inputId": 1,
      "color": "#c91847"
    },
    {
      "id": 204,
      "outputModuleId": 37,
      "outputId": 0,
      "inputModuleId": 2,
      "inputId": 2,
      "color": "#0986ad"
    },
    {
      "id": 205,
      "outputModuleId": 31,
      "outputId": 0,
      "inputModuleId": 36,
      "inputId": 1,
      "color": "#c9b70e"
    },
    {
      "id": 206,
      "outputModuleId": 9,
      "outputId": 10,
      "inputModuleId": 31,
      "inputId": 5,
      "color": "#0c8e15"
    },
    {
      "id": 203,
      "outputModuleId": 36,
      "outputId": 0,
      "inputModuleId": 37,
      "inputId": 3,
      "color": "#c91847"
    },
    {
      "id": 201,
      "outputModuleId": 35,
      "outputId": 1,
      "inputModuleId": 4,
      "inputId": 3,
      "color": "#0986ad"
    },
    {
      "id": 208,
      "outputModuleId": 4,
      "outputId": 1,
      "inputModuleId": 31,
      "inputId": 7,
      "color": "#0986ad"
    },
    {
      "id": 207,
      "outputModuleId": 37,
      "outputId": 1,
      "inputModuleId": 31,
      "inputId": 6,
      "color": "#c91847"
    }
  ]
}